<svg xmlns="http://www.w3.org/2000/svg" viewBox="0 0 603 182" role="img" aria-label="Amazon">
  <path fill="#ff9900" d="m374.006 142.184c-34.999 25.797-85.729 39.561-129.406 39.561-61.243 0-116.377-22.651-158.088-60.325-3.277-2.963-.341-6.999 3.592-4.693 45.014 26.191 100.673 41.947 158.166 41.947 38.775 0 81.43-8.022 120.65-24.67 5.925-2.517 10.88 3.88 5.086 8.18"/>
  <path fill="#ff9900" d="m388.557 125.536c-4.457-5.715-29.573-2.7-40.846-1.363-3.434.419-3.959-2.569-.865-4.719 20.003-14.078 52.827-10.015 56.655-5.296 3.828 4.745-.996 37.647-19.794 53.351-2.884 2.412-5.637 1.127-4.352-2.071 4.221-10.539 13.685-34.161 9.202-39.902"/>
  <path fill="#fff" d="M348.497 20.066V6.381c0-2.071 1.573-3.461 3.461-3.461h61.269c1.966 0 3.539 1.416 3.539 3.461v11.719c-.026 1.966-1.678 4.536-4.614 8.599l-31.749 45.329c11.798-.288 24.251 1.468 34.947 7.498 2.412 1.363 3.067 3.356 3.251 5.322V99.451c0 1.992-2.202 4.326-4.509 3.12-18.85-9.884-43.887-10.959-64.729.105-2.124 1.154-4.352-1.154-4.352-3.146V85.661c0-2.228.026-6.03 2.255-9.412l36.782-52.748h-32.011c-1.966 0-3.539-1.389-3.539-3.434"/>
  <path fill="#fff" d="M125 105.454h-18.64c-1.783-.131-3.198-1.468-3.33-3.172V6.617c0-1.914 1.599-3.434 3.592-3.434h17.382c1.809.079 3.251 1.468 3.382 3.198v12.505h.341c4.536-12.086 13.056-17.723 24.539-17.723 11.666 0 18.955 5.637 24.198 17.723 4.509-12.086 14.76-17.723 25.745-17.723 7.813 0 16.359 3.225 21.576 10.461 5.899 8.049 4.693 19.741 4.693 29.992l-.026 60.377c0 1.914-1.599 3.461-3.592 3.461h-18.614c-1.861-.131-3.356-1.625-3.356-3.461V51.29c0-10.67 1.757-26.374-11.483-26.374-13.397 0-12.872 15.311-12.872 26.374v50.703c0 1.914-1.599 3.461-3.592 3.461h-18.614c-1.888-.131-3.356-1.625-3.356-3.461L153 51.29c0-10.67 1.757-26.374-11.483-26.374-13.397 0-12.872 15.311-12.872 26.374v50.703c0 1.914-1.599 3.461-3.592 3.461"/>
  <path fill="#fff" d="M469.514 1.164c27.659 0 42.629 23.752 42.629 53.954 0 29.179-16.543 52.329-42.629 52.329-27.161 0-41.947-23.752-41.947-53.351 0-29.782 14.97-52.932 41.947-52.932m.157 19.532c-13.738 0-14.603 18.719-14.603 30.385 0 11.693-.184 36.651 14.445 36.651 14.446 0 15.127-20.135 15.127-32.404 0-8.075-.341-17.723-2.779-25.378-2.097-6.659-6.266-9.255-12.191-9.255"/>
  <path fill="#fff" d="M548.008 105.454h-18.562c-1.861-.131-3.356-1.625-3.356-3.461l-.026-95.691c.157-1.757 1.704-3.12 3.592-3.12h17.277c1.625.079 2.962 1.18 3.33 2.674v14.629h.341c5.217-13.082 12.532-19.322 25.404-19.322 8.363 0 16.517 3.015 21.76 11.273 4.876 7.655 4.876 20.528 4.876 29.782v60.22c-.21 1.678-1.757 3.015-3.592 3.015h-18.693c-1.704-.131-3.12-1.389-3.303-3.015V50.478c0-10.461 1.206-25.771-11.667-25.771-4.535 0-8.704 3.041-10.775 7.655-2.622 5.846-2.962 11.667-2.962 18.116v51.516c-.026 1.914-1.652 3.461-3.644 3.461"/>
  <path fill="#fff" d="M299.655 59.758v-4.037c-13.475 0-27.711 2.884-27.711 18.771 0 8.049 4.168 13.502 11.326 13.502 5.243 0 9.936-3.225 12.899-8.468 3.67-6.45 3.487-12.505 3.487-19.768m18.797 45.434c-1.232 1.101-3.015 1.18-4.404.446-6.187-5.139-7.288-7.524-10.696-12.427-10.225 10.434-17.46 13.554-30.726 13.554-15.678 0-27.895-9.674-27.895-29.048 0-15.127 8.206-25.43 19.872-30.464 10.12-4.457 24.251-5.243 35.052-6.476v-2.412c0-4.431.341-9.674-2.255-13.502-2.281-3.434-6.633-4.85-10.461-4.85-7.105 0-13.449 3.644-14.996 11.195-.315 1.678-1.547 3.33-3.225 3.408l-18.797 1.468c-1.521-.341-3.198-1.573-2.779-3.906 4.168-21.917 23.962-28.524 41.685-28.524 9.071 0 20.921 2.412 28.078 9.281 9.071 8.468 8.206 19.768 8.206 32.063v29.048c0 8.73 3.618 12.558 7.026 17.277 1.206 1.678 1.468 3.697-.052 4.955-3.801 3.172-10.565 9.071-14.288 12.374"/>
</svg>
